<svg width="36" height="42" viewBox="0 0 36 42" fill="none" xmlns="http://www.w3.org/2000/svg">
<path d="M6.4472 20.5544L6.44403 20.5575L7.14564 18.8439C7.22465 18.6562 7.14248 18.4373 6.95602 18.3529C5.89729 17.8526 2.66421 16.0983 2.66421 13.3746V6.36676C2.66421 6.15412 2.84119 5.979 3.05926 5.979H4.37398V8.956C4.37398 9.17177 4.55096 9.34376 4.76903 9.34376H6.63998C6.85805 9.34376 7.03503 9.16864 7.03503 8.956V5.979H27.2584C27.4764 5.979 27.6534 5.80389 27.6534 5.59124V3.75251C27.6534 3.53987 27.4764 3.36475 27.2584 3.36475H7.02871V0.38776C7.02871 0.17199 6.85172 0 6.63366 0H4.76271C4.54464 0 4.36766 0.175117 4.36766 0.38776V3.36475H0.395049C0.176982 3.36475 0 3.53987 0 3.75251V13.3777C0 17.7306 4.5478 20.1385 5.91941 20.767C6.12484 20.8546 6.36186 20.7608 6.4472 20.5544ZM21.1683 12.7429C21.2031 12.4521 20.9597 12.1894 20.6595 12.1894H19.0034C18.7538 12.1894 18.5546 12.3739 18.5041 12.6116C18.2955 13.5747 17.4011 14.1532 16.5604 14.1532C16.2507 14.1532 15.8083 14.0719 15.4543 13.6654C15.0593 13.2214 14.8475 12.4834 14.8349 11.539C14.8127 9.98794 13.833 8.55886 12.3066 8.16172C9.99315 7.55506 7.90413 9.25933 7.89465 11.4358C7.89465 11.442 7.90097 11.4483 7.90729 11.4514C7.90097 11.4545 7.89465 11.4608 7.89465 11.4671C7.90413 13.1807 9.19357 14.591 10.8654 14.8318V14.8287C11.1309 14.8631 11.3648 14.6598 11.3648 14.3971V12.6116C11.3648 12.4271 11.2447 12.2707 11.0677 12.2144C10.8307 12.1394 10.5367 11.9455 10.5367 11.4545C10.5462 11.4545 10.5494 11.4514 10.5494 11.442C10.5589 10.9667 10.9918 10.5883 11.4943 10.6665C11.9052 10.7291 12.177 11.1168 12.177 11.5265C12.1896 13.1213 12.6321 14.4597 13.4538 15.3884C14.2407 16.2828 15.35 16.7737 16.5668 16.7737L16.5573 16.7706C18.6368 16.7675 20.8744 15.2446 21.1683 12.7429ZM12.6258 34.4825L17.9542 27.015C18.0458 26.8899 17.8973 26.7304 17.7614 26.8086L12.9039 29.6636C12.5784 29.8544 12.1707 29.8544 11.8451 29.6636L6.9813 26.8086C6.8454 26.7304 6.69687 26.8899 6.78852 27.015L12.1264 34.4825C12.2465 34.6545 12.5025 34.6545 12.6258 34.4825ZM18.03 25.3076L12.6384 16.4391C12.5183 16.2421 12.2307 16.2421 12.1138 16.4391L6.71583 25.3076C6.62102 25.4671 6.67158 25.6703 6.83276 25.7641L11.8483 28.7005C12.1738 28.8912 12.5784 28.8912 12.9039 28.7005L17.9131 25.7641C18.0743 25.6703 18.1248 25.4639 18.03 25.3076ZM33.8288 31.3522C33.2189 30.8331 32.5173 30.4704 31.7651 30.2859C31.7556 30.2828 31.7556 30.2765 31.7556 30.2671C32.0622 28.8506 31.6671 27.3652 30.5831 26.0862C29.1167 24.3601 26.3608 23.1311 24.0695 24.1693C23.9589 24.2225 23.8831 24.3257 23.8673 24.4445L23.5986 26.1675C23.5797 26.277 23.6208 26.3895 23.6998 26.474C24.689 27.484 24.9924 28.2908 24.8533 28.6285C24.7996 28.7536 24.2149 29.8137 19.5375 29.8919C19.231 29.895 18.9845 30.1452 18.9845 30.4454V31.9495C18.9845 32.2591 19.2405 32.5124 19.5565 32.5061C24.0474 32.4373 26.5188 31.518 27.3121 29.6292C27.666 28.788 27.6186 27.8562 27.192 26.8805C27.1699 26.8242 27.2268 26.7585 27.2836 26.7898C27.7577 27.0212 28.2065 27.3621 28.5604 27.7748C29.104 28.4159 29.5749 29.4009 28.8354 30.5111C28.7564 30.6299 28.7469 30.7769 28.8164 30.8988L29.8341 32.5906C29.9099 32.7125 30.0458 32.7751 30.188 32.7594C30.9465 32.6938 31.5786 32.8845 32.119 33.3442C32.9881 34.0822 33.3642 35.2736 33.3642 35.7239C33.3642 36.3306 33.3642 37.6346 31.4775 38.3788C31.5154 38.1568 31.5344 37.9254 31.5344 37.6909C31.5344 36.5213 31.035 35.3893 30.1659 34.5794C29.4928 33.9509 28.2665 33.2035 26.2502 33.2035C23.4153 33.2035 21.222 34.7733 19.1014 36.2899C16.8765 37.8754 14.7811 39.3764 11.8799 39.3764C10.3345 39.3764 9.18093 38.9198 8.35923 37.9786C6.87069 36.2743 6.64946 33.1753 6.95602 30.683C6.98762 30.436 6.8138 30.2077 6.56097 30.1702L4.85436 29.9232C4.59837 29.8888 4.35502 30.0639 4.32341 30.3203C4.04846 32.4968 3.88412 36.8841 6.34922 39.6953C7.68607 41.2245 9.5507 42 11.8831 42L11.8609 41.9906C15.6218 41.9906 18.2892 40.0862 20.6405 38.4038C22.581 37.0185 24.2908 35.8177 26.2312 35.8177C28.1717 35.8177 28.8575 36.8278 28.8575 37.6909C28.8575 37.8816 28.8101 38.776 27.8873 38.9167C27.7356 38.9386 27.625 39.0637 27.625 39.2138V41.2464C27.625 41.4152 27.7672 41.5528 27.9378 41.5528C34.9413 41.4496 36 37.8754 36 35.7302C36 34.6982 35.4216 32.6969 33.8288 31.3522Z" fill="white"/>
</svg>
